<?xml version="1.0" standalone="no"?>
<!DOCTYPE svg PUBLIC "-//W3C//DTD SVG 20010904//EN"
 "http://www.w3.org/TR/2001/REC-SVG-20010904/DTD/svg10.dtd">
<svg version="1.0" xmlns="http://www.w3.org/2000/svg"
 width="279.000000pt" height="279.000000pt" viewBox="0 0 279.000000 279.000000"
 preserveAspectRatio="xMidYMid meet">
<metadata>
Created by potrace 1.11, written by Peter Selinger 2001-2013
</metadata>
<g transform="translate(0.000000,279.000000) scale(0.100000,-0.100000)"
fill="#000000" stroke="none">
<path d="M550 2612 c-36 -24 -48 -42 -60 -85 -14 -49 -4 -100 25 -130 l24 -23
2 -432 c1 -371 -1 -435 -14 -450 -26 -31 -37 -60 -37 -103 0 -58 33 -107 88
-131 42 -19 46 -19 88 -3 58 22 87 63 89 127 2 47 4 52 58 98 31 27 78 69 104
93 27 25 76 69 110 98 144 125 369 327 382 342 7 9 22 17 33 17 26 0 69 23 93
50 28 31 28 129 0 160 -44 49 -110 63 -164 36 -42 -22 -63 -61 -65 -122 l-1
-54 -86 -77 c-47 -43 -124 -112 -170 -154 -46 -43 -110 -99 -141 -125 -31 -27
-93 -81 -136 -121 l-79 -72 -8 387 c-4 213 -7 395 -7 404 0 10 17 34 36 54 90
93 34 235 -94 233 -25 0 -56 -8 -70 -17z"/>
<path d="M2235 2613 c-69 -15 -105 -64 -105 -145 0 -52 -2 -56 -42 -89 -24
-18 -88 -76 -143 -129 -55 -53 -143 -134 -196 -182 -52 -48 -115 -106 -140
-130 -24 -24 -93 -88 -154 -142 -60 -55 -155 -143 -210 -195 -55 -53 -147
-139 -205 -191 -57 -52 -155 -144 -218 -205 l-113 -110 -74 0 c-71 0 -75 -2
-109 -34 -32 -31 -36 -41 -36 -86 0 -45 4 -56 34 -86 l33 -34 6 -225 5 -225
-27 -28 c-80 -79 -47 -210 57 -224 85 -11 152 54 152 149 0 44 -4 54 -36 86
l-36 36 -5 209 -6 209 25 22 c14 11 31 33 39 48 8 14 61 68 118 118 58 51 119
106 136 124 17 17 86 82 154 145 l123 113 22 -23 c12 -13 43 -51 69 -84 62
-79 119 -148 170 -209 51 -60 89 -107 167 -208 33 -42 65 -80 71 -83 6 -4 24
-26 40 -48 17 -23 45 -58 63 -77 17 -19 50 -58 71 -86 39 -49 121 -149 171
-207 22 -25 24 -31 14 -67 -8 -31 -7 -47 6 -79 22 -56 65 -81 140 -81 66 1 91
15 118 68 21 41 20 64 -4 112 -23 44 -61 74 -107 85 -18 3 -33 12 -33 19 0 7
-11 25 -25 40 -14 15 -42 49 -63 76 -20 27 -71 90 -113 142 -100 122 -171 208
-191 233 -9 11 -40 49 -70 84 -29 35 -71 87 -93 115 -22 28 -49 60 -61 71 -11
11 -39 46 -62 77 -23 31 -46 59 -52 63 -14 9 -130 162 -130 172 0 4 59 62 132
128 73 66 193 179 268 251 74 73 153 147 175 165 46 38 42 35 193 182 78 76
122 111 147 118 54 15 95 67 95 121 0 30 -38 106 -58 117 -24 12 -73 20 -97
14z"/>
</g>
</svg>
